<svg width="580" height="400" xmlns="http://www.w3.org/2000/svg">
 <!-- Created with Method Draw - http://github.com/duopixel/Method-Draw/ -->
 <defs>
  <filter id="svg_6_blur">
   <feGaussianBlur stdDeviation="1.5" in="SourceGraphic"/>
  </filter>
  <filter id="svg_7_blur">
   <feGaussianBlur stdDeviation="1.3" in="SourceGraphic"/>
  </filter>
 </defs>
 <g>
  <title>background</title>
  <rect fill="#fff" id="canvas_background" height="402" width="582" y="-1" x="-1"/>
  <g display="none" overflow="visible" y="0" x="0" height="100%" width="100%" id="canvasGrid">
   <rect fill="url(#gridpattern)" stroke-width="0" y="0" x="0" height="100%" width="100%"/>
  </g>
 </g>
 <g>
  <title>Layer 1</title>
  <ellipse ry="106.5" rx="109" id="svg_4" cy="142" cx="173.5" stroke-width="17" stroke="#000" fill="#fff"/>
  <ellipse transform="rotate(-56 329.5,157.99999999999997) " ry="66" rx="101" id="svg_5" cy="158" cx="329.5" stroke-width="9.5" stroke="#000" fill="#fff"/>
  <line stroke-linecap="undefined" stroke-linejoin="undefined" id="svg_1" y2="195" x2="99.5" y1="78" x1="165.5" stroke-width="1.5" stroke="#000" fill="none"/>
  <line stroke-linecap="undefined" stroke-linejoin="undefined" id="svg_2" y2="77" x2="164.5" y1="205" x1="247.5" stroke-width="1.5" stroke="#000" fill="none"/>
  <line stroke-linecap="undefined" stroke-linejoin="undefined" id="svg_3" y2="204" x2="247.5" y1="194" x1="99.5" stroke-width="1.5" stroke="#000" fill="none"/>
  <path transform="rotate(-50 332.085693359375,188.48428344726562) " filter="url(#svg_6_blur)" d="m342.5,242c-1,0 -1,1 -1,2c0,3 0,8 0,11c0,5 -0.640717,9.051636 0,13c1.013092,6.242889 3,12 5,16c3,6 6.907776,8.496216 11,9c4.962524,0.610931 9,0 14,-1c5,-1 10.142212,-2.360962 16,-4c5.185974,-1.45105 10.197998,-3.632965 16,-7c6.236969,-3.619446 10.42334,-6.428253 16,-11c4.374695,-3.586395 10.786377,-7.17865 15,-12c3.837097,-4.390518 6,-10 8,-14c3,-6 7.147736,-10.943405 9,-16c2.175385,-5.93866 4.501709,-13.937958 4,-20c-0.577362,-6.976151 -0.354431,-14.012573 0,-19c0.501251,-7.053284 4.771942,-12.119553 8,-18c2.805908,-5.11145 4.645569,-13.012573 5,-18c0.501251,-7.053284 0.903381,-13.016907 2,-19c0.91925,-5.015472 2,-8.900978 2,-14c0,-5.099022 -3.085571,-9.963943 -6,-17c-2.060822,-4.975243 -5.465515,-9.838089 -7,-15c-1.452942,-4.887634 -3,-9 -3,-13c0,-1 0.418854,-4.418861 2,-6c1.581146,-1.581139 3.823761,-2.486259 6,-3c1.946503,-0.459503 2,-1 3,-1c1,0 2.01947,-0.39415 6,0c5.074219,0.502449 7.907776,2.496223 12,3c0.992493,0.122185 3,0 6,0c4,0 7.064575,-0.800911 12,0c3.121429,0.506538 3.693451,1.458801 5,2c0.923889,0.382683 2,0 3,0c1,0 4.076111,-0.617317 5,-1c3.919678,-1.623589 3.789856,-6.078438 5,-9c1.711426,-4.131714 2.789856,-8.078438 4,-11c0.855713,-2.065857 2,-5 2,-8c0,-1 0,-2 -1,-2c-1,0 -2.186035,-0.307453 -4,1c-2.294556,1.653809 -4.488708,4.029968 -4,8c0.503784,4.092213 2.08075,7.984528 3,13c1.096619,5.983101 1,13 1,23c0,10 3,20 4,27c1,7 2,15 2,23c0,8 0,17 0,23c0,6 0,12 0,19c0,10 0,20 0,32c0,8 0.783447,16.137466 -1,24c-2.798096,12.335754 -8.759644,23.773682 -16,34c-7.774048,10.980164 -16.675293,19.380951 -26,27c-11.615601,9.490936 -23.094421,16.797272 -34,22c-14.127167,6.739685 -25.880707,12.477844 -37,15c-10.903351,2.473175 -22.006317,2.59433 -35,3c-16.023407,0.500244 -33,1 -48,1c-17,0 -30.052521,-0.16748 -43,1c-11.135162,1.004059 -23.010315,1.462738 -37,2c-13.028793,0.500366 -27,1 -42,1c-16,0 -33,0 -46,0c-12,0 -19,0 -24,0l-2,0l-2,0" id="svg_6" fill-opacity="null" stroke-opacity="null" stroke-width="2" stroke="#000" fill="none"/>
  <path filter="url(#svg_7_blur)" stroke="#000" id="svg_7" d="m56.202495,336.455271l11.190896,-46.284234l45.309001,-20.59845l45.309012,20.59845l11.1911,46.284234l-31.355704,37.11732l-50.288814,0l-31.355492,-37.11732z" fill-opacity="null" stroke-opacity="null" stroke-width="12" fill="#fff"/>
  <path id="svg_8" d="m355.999957,272.499997l12.604879,-29.047465l32.999816,-17.952534l40.790645,0l33.00002,17.952534l12.604671,29.047465l-12.604671,29.047465l-33.00002,17.952531l-40.790645,0l-32.999816,-17.952531l-12.604879,-29.047465z" fill-opacity="null" stroke-opacity="null" stroke-width="5" stroke="#000" fill="#fff"/>
 </g>
</svg>